<svg width="20" height="22" viewBox="0 0 20 22" fill="none" xmlns="http://www.w3.org/2000/svg">
<path d="M18.998 9C18.986 6.825 18.89 5.647 18.121 4.879C17.243 4 15.828 4 13 4H10C7.172 4 5.757 4 4.879 4.879C4 5.757 4 7.172 4 10V15C4 17.828 4 19.243 4.879 20.121C5.757 21 7.172 21 10 21H13C15.828 21 17.243 21 18.121 20.121C19 19.243 19 17.828 19 15V14" stroke="white" stroke-width="1.5" stroke-linecap="round"/>
<path d="M1 9V15C1 15.7956 1.31607 16.5587 1.87868 17.1213C2.44129 17.6839 3.20435 18 4 18M16 4C16 3.20435 15.6839 2.44129 15.1213 1.87868C14.5587 1.31607 13.7956 1 13 1H9C5.229 1 3.343 1 2.172 2.172C1.518 2.825 1.229 3.7 1.102 5" stroke="white" stroke-width="1.5" stroke-linecap="round"/>
</svg>
