<svg width="26" height="24" viewBox="0 0 26 24" fill="none" xmlns="http://www.w3.org/2000/svg">
<path d="M14.4167 0.75C14.7777 0.750353 15.125 0.872349 15.3876 1.09106C15.6502 1.30977 15.8082 1.60869 15.8293 1.92674C15.8505 2.2448 15.7332 2.55797 15.5015 2.80229C15.2697 3.04661 14.941 3.20362 14.5824 3.24125L14.4167 3.25H3.08333V20.75H22.9167V10.75C22.9171 10.4314 23.0553 10.125 23.3032 9.89329C23.5511 9.66162 23.8898 9.52221 24.2503 9.50353C24.6108 9.48486 24.9657 9.58834 25.2426 9.79283C25.5195 9.99732 25.6974 10.2874 25.7401 10.6038L25.75 10.75V20.75C25.7502 21.3807 25.4803 21.9882 24.9942 22.4507C24.5082 22.9132 23.842 23.1964 23.1292 23.2438L22.9167 23.25H3.08333C2.36852 23.2502 1.68003 23.012 1.15589 22.5831C0.63175 22.1543 0.310695 21.5664 0.257084 20.9375L0.25 20.75V3.25C0.249774 2.61928 0.519742 2.01179 1.00579 1.54931C1.49183 1.08684 2.15803 0.803554 2.87083 0.75625L3.08333 0.75H14.4167ZM23.2609 1.17875C23.5159 0.954565 23.8579 0.824408 24.2177 0.814715C24.5775 0.805022 24.9279 0.916519 25.1979 1.12656C25.4679 1.3366 25.6371 1.62944 25.6712 1.94559C25.7054 2.26175 25.6018 2.57751 25.3817 2.82875L25.2641 2.9475L11.2391 15.3212C10.9841 15.5454 10.6421 15.6756 10.2823 15.6853C9.92253 15.695 9.57207 15.5835 9.30211 15.3734C9.03214 15.1634 8.8629 14.8706 8.82877 14.5544C8.79464 14.2383 8.89817 13.9225 9.11833 13.6712L9.23592 13.5538L23.2609 1.17875Z" fill="black"/>
</svg>
