<svg width="21" height="20" viewBox="0 0 21 20" fill="none" xmlns="http://www.w3.org/2000/svg">
<path d="M5.87771 0H14.2838C17.4862 0 20.0881 2.6 20.0881 5.8V14.2C20.0881 15.7383 19.4765 17.2135 18.388 18.3012C17.2995 19.3889 15.8232 20 14.2838 20H5.87771C2.67538 20 0.0734863 17.4 0.0734863 14.2V5.8C0.0734863 4.26174 0.685001 2.78649 1.7735 1.69878C2.86201 0.61107 4.33834 0 5.87771 0ZM5.67757 2C4.72209 2 3.80575 2.37928 3.13013 3.05442C2.4545 3.72955 2.07494 4.64522 2.07494 5.6V14.4C2.07494 16.39 3.68612 18 5.67757 18H14.484C15.4394 18 16.3558 17.6207 17.0314 16.9456C17.707 16.2705 18.0866 15.3548 18.0866 14.4V5.6C18.0866 3.61 16.4754 2 14.484 2H5.67757ZM15.3346 3.5C15.6664 3.5 15.9845 3.6317 16.2191 3.86612C16.4537 4.10054 16.5855 4.41848 16.5855 4.75C16.5855 5.08152 16.4537 5.39946 16.2191 5.63388C15.9845 5.8683 15.6664 6 15.3346 6C15.0028 6 14.6847 5.8683 14.4501 5.63388C14.2155 5.39946 14.0837 5.08152 14.0837 4.75C14.0837 4.41848 14.2155 4.10054 14.4501 3.86612C14.6847 3.6317 15.0028 3.5 15.3346 3.5ZM10.0808 5C11.4078 5 12.6805 5.52678 13.6189 6.46447C14.5572 7.40215 15.0844 8.67392 15.0844 10C15.0844 11.3261 14.5572 12.5979 13.6189 13.5355C12.6805 14.4732 11.4078 15 10.0808 15C8.75372 15 7.48103 14.4732 6.54266 13.5355C5.6043 12.5979 5.07713 11.3261 5.07713 10C5.07713 8.67392 5.6043 7.40215 6.54266 6.46447C7.48103 5.52678 8.75372 5 10.0808 5ZM10.0808 7C9.28454 7 8.52092 7.31607 7.9579 7.87868C7.39489 8.44129 7.07858 9.20435 7.07858 10C7.07858 10.7956 7.39489 11.5587 7.9579 12.1213C8.52092 12.6839 9.28454 13 10.0808 13C10.877 13 11.6406 12.6839 12.2036 12.1213C12.7667 11.5587 13.083 10.7956 13.083 10C13.083 9.20435 12.7667 8.44129 12.2036 7.87868C11.6406 7.31607 10.877 7 10.0808 7Z" fill="black"/>
</svg>
