<svg width="781" height="705" viewBox="0 0 481 205" fill="none" xmlns="http://www.w3.org/2000/svg">
<rect width="781" height="705" fill="white"/>
<path d="M136.16 120L126.56 103.32H121.34V120H114.5V78.3H128.9C132.1 78.3 134.8 78.86 137 79.98C139.24 81.1 140.9 82.6 141.98 84.48C143.1 86.36 143.66 88.46 143.66 90.78C143.66 93.5 142.86 95.98 141.26 98.22C139.7 100.42 137.28 101.92 134 102.72L144.32 120H136.16ZM121.34 97.86H128.9C131.46 97.86 133.38 97.22 134.66 95.94C135.98 94.66 136.64 92.94 136.64 90.78C136.64 88.62 136 86.94 134.72 85.74C133.44 84.5 131.5 83.88 128.9 83.88H121.34V97.86ZM182.71 102.66C182.71 103.9 182.63 105.02 182.47 106.02H157.21C157.41 108.66 158.39 110.78 160.15 112.38C161.91 113.98 164.07 114.78 166.63 114.78C170.31 114.78 172.91 113.24 174.43 110.16H181.81C180.81 113.2 178.99 115.7 176.35 117.66C173.75 119.58 170.51 120.54 166.63 120.54C163.47 120.54 160.63 119.84 158.11 118.44C155.63 117 153.67 115 152.23 112.44C150.83 109.84 150.13 106.84 150.13 103.44C150.13 100.04 150.81 97.06 152.17 94.5C153.57 91.9 155.51 89.9 157.99 88.5C160.51 87.1 163.39 86.4 166.63 86.4C169.75 86.4 172.53 87.08 174.97 88.44C177.41 89.8 179.31 91.72 180.67 94.2C182.03 96.64 182.71 99.46 182.71 102.66ZM175.57 100.5C175.53 97.98 174.63 95.96 172.87 94.44C171.11 92.92 168.93 92.16 166.33 92.16C163.97 92.16 161.95 92.92 160.27 94.44C158.59 95.92 157.59 97.94 157.27 100.5H175.57ZM196.281 91.8C197.441 90.28 199.021 89 201.021 87.96C203.021 86.92 205.281 86.4 207.801 86.4C210.681 86.4 213.301 87.12 215.661 88.56C218.061 89.96 219.941 91.94 221.301 94.5C222.661 97.06 223.341 100 223.341 103.32C223.341 106.64 222.661 109.62 221.301 112.26C219.941 114.86 218.061 116.9 215.661 118.38C213.301 119.82 210.681 120.54 207.801 120.54C205.281 120.54 203.041 120.04 201.081 119.04C199.121 118 197.521 116.72 196.281 115.2V135.72H189.441V86.94H196.281V91.8ZM216.381 103.32C216.381 101.04 215.901 99.08 214.941 97.44C214.021 95.76 212.781 94.5 211.221 93.66C209.701 92.78 208.061 92.34 206.301 92.34C204.581 92.34 202.941 92.78 201.381 93.66C199.861 94.54 198.621 95.82 197.661 97.5C196.741 99.18 196.281 101.16 196.281 103.44C196.281 105.72 196.741 107.72 197.661 109.44C198.621 111.12 199.861 112.4 201.381 113.28C202.941 114.16 204.581 114.6 206.301 114.6C208.061 114.6 209.701 114.16 211.221 113.28C212.781 112.36 214.021 111.04 214.941 109.32C215.901 107.6 216.381 105.6 216.381 103.32ZM236.945 75.6V120H230.105V75.6H236.945ZM243.646 103.32C243.646 100 244.326 97.06 245.686 94.5C247.086 91.94 248.966 89.96 251.326 88.56C253.726 87.12 256.366 86.4 259.246 86.4C261.846 86.4 264.106 86.92 266.026 87.96C267.986 88.96 269.546 90.22 270.706 91.74V86.94H277.606V120H270.706V115.08C269.546 116.64 267.966 117.94 265.966 118.98C263.966 120.02 261.686 120.54 259.126 120.54C256.286 120.54 253.686 119.82 251.326 118.38C248.966 116.9 247.086 114.86 245.686 112.26C244.326 109.62 243.646 106.64 243.646 103.32ZM270.706 103.44C270.706 101.16 270.226 99.18 269.266 97.5C268.346 95.82 267.126 94.54 265.606 93.66C264.086 92.78 262.446 92.34 260.686 92.34C258.926 92.34 257.286 92.78 255.766 93.66C254.246 94.5 253.006 95.76 252.046 97.44C251.126 99.08 250.666 101.04 250.666 103.32C250.666 105.6 251.126 107.6 252.046 109.32C253.006 111.04 254.246 112.36 255.766 113.28C257.326 114.16 258.966 114.6 260.686 114.6C262.446 114.6 264.086 114.16 265.606 113.28C267.126 112.4 268.346 111.12 269.266 109.44C270.226 107.72 270.706 105.72 270.706 103.44ZM316.35 86.94L296.07 135.54H288.99L295.71 119.46L282.69 86.94H290.31L299.61 112.14L309.27 86.94H316.35ZM324.272 120.42C323.032 120.42 321.992 120 321.152 119.16C320.312 118.32 319.892 117.28 319.892 116.04C319.892 114.8 320.312 113.76 321.152 112.92C321.992 112.08 323.032 111.66 324.272 111.66C325.472 111.66 326.492 112.08 327.332 112.92C328.172 113.76 328.592 114.8 328.592 116.04C328.592 117.28 328.172 118.32 327.332 119.16C326.492 120 325.472 120.42 324.272 120.42Z" fill="black"/>
</svg>
