<svg width="21" height="16" viewBox="0 0 21 16" fill="none" xmlns="http://www.w3.org/2000/svg">
<path d="M20.0314 3.53491V12.9999C20.0315 13.7651 19.7389 14.5014 19.2135 15.0582C18.6882 15.6149 17.9698 15.95 17.2054 15.9949L17.0292 15.9999H3.01903C2.25326 16 1.51642 15.7076 0.959271 15.1826C0.402119 14.6577 0.0667745 13.9398 0.0218495 13.1759L0.0168457 12.9999V3.53491L9.46873 9.83191L9.58481 9.89791C9.72161 9.96471 9.87187 9.99942 10.0241 9.99942C10.1764 9.99942 10.3266 9.96471 10.4634 9.89791L10.5795 9.83191L20.0314 3.53491Z" fill="black"/>
<path d="M17.0292 0C18.11 0 19.0577 0.57 19.5861 1.427L10.0241 7.797L0.462158 1.427C0.713133 1.01982 1.05788 0.6785 1.46766 0.431489C1.87744 0.184479 2.34038 0.0389373 2.81787 0.00699997L3.01902 0H17.0292Z" fill="black"/>
</svg>
