<svg width="16" height="16" viewBox="0 0 16 16" fill="none" xmlns="http://www.w3.org/2000/svg">
<path d="M8 10.5C7.33696 10.5 6.70107 10.2366 6.23223 9.76777C5.76339 9.29893 5.5 8.66304 5.5 8C5.5 7.33696 5.76339 6.70107 6.23223 6.23223C6.70107 5.76339 7.33696 5.5 8 5.5C8.66304 5.5 9.29893 5.76339 9.76777 6.23223C10.2366 6.70107 10.5 7.33696 10.5 8C10.5 8.66304 10.2366 9.29893 9.76777 9.76777C9.29893 10.2366 8.66304 10.5 8 10.5ZM8 6.5C7.60218 6.5 7.22064 6.65804 6.93934 6.93934C6.65804 7.22064 6.5 7.60218 6.5 8C6.5 8.39782 6.65804 8.77936 6.93934 9.06066C7.22064 9.34196 7.60218 9.5 8 9.5C8.39782 9.5 8.77936 9.34196 9.06066 9.06066C9.34196 8.77936 9.5 8.39782 9.5 8C9.5 7.60218 9.34196 7.22064 9.06066 6.93934C8.77936 6.65804 8.39782 6.5 8 6.5Z" fill="#305041"/>
<path d="M10 16H6V13.97C5.98961 13.8818 5.95593 13.798 5.90242 13.7272C5.84891 13.6563 5.77751 13.601 5.69554 13.5669C5.61358 13.5328 5.52401 13.5211 5.43604 13.5331C5.34807 13.5451 5.26487 13.5802 5.195 13.635L3.755 15.07L0.93 12.245L2.365 10.81C2.42912 10.7458 2.47283 10.6641 2.49062 10.5751C2.50841 10.4862 2.4995 10.3939 2.465 10.31C2.43181 10.2225 2.37303 10.1471 2.29631 10.0936C2.2196 10.0401 2.12853 10.011 2.035 10.01H0V6H2.03C2.12167 5.99951 2.21111 5.97165 2.28684 5.91998C2.36256 5.8683 2.42112 5.79519 2.455 5.71C2.48884 5.62633 2.49788 5.53469 2.48103 5.44603C2.46419 5.35736 2.42217 5.27542 2.36 5.21L0.93 3.755L3.755 0.93L5.19 2.365C5.25986 2.42108 5.3435 2.45737 5.43218 2.47006C5.52087 2.48276 5.61133 2.47139 5.69411 2.43715C5.7769 2.40291 5.84897 2.34706 5.90278 2.27544C5.95659 2.20381 5.99016 2.11904 6 2.03V0H10V2.03C10.0104 2.11817 10.0441 2.20198 10.0976 2.27282C10.1511 2.34366 10.2225 2.39898 10.3045 2.43309C10.3864 2.4672 10.476 2.47887 10.564 2.46691C10.6519 2.45494 10.7351 2.41977 10.805 2.365L12.24 0.93L15.07 3.76L13.635 5.195C13.5709 5.25919 13.5272 5.34091 13.5094 5.42988C13.4916 5.51884 13.5005 5.61109 13.535 5.695C13.5682 5.78245 13.627 5.85786 13.7037 5.91138C13.7804 5.9649 13.8715 5.99404 13.965 5.995H16V9.995H13.97C13.8783 9.99549 13.7889 10.0234 13.7132 10.075C13.6374 10.1267 13.5789 10.1998 13.545 10.285C13.5112 10.3687 13.5021 10.4603 13.519 10.549C13.5358 10.6376 13.5778 10.7196 13.64 10.785L15.075 12.22L12.245 15.05L10.81 13.615C10.7401 13.5602 10.6569 13.5251 10.569 13.5131C10.481 13.5011 10.3914 13.5128 10.3095 13.5469C10.2275 13.581 10.1561 13.6363 10.1026 13.7072C10.0491 13.778 10.0154 13.8618 10.005 13.95L10 16ZM7 15H9V13.97C9.01441 13.6871 9.10864 13.414 9.2718 13.1824C9.43495 12.9508 9.66036 12.7702 9.92192 12.6614C10.1835 12.5525 10.4705 12.52 10.7498 12.5676C11.0291 12.6151 11.2892 12.7408 11.5 12.93L12.23 13.66L13.645 12.245L12.93 11.5C12.7408 11.2892 12.6151 11.0291 12.5676 10.7498C12.52 10.4705 12.5525 10.1835 12.6614 9.92192C12.7702 9.66036 12.9508 9.43495 13.1824 9.2718C13.414 9.10864 13.6871 9.01441 13.97 9H15V7H13.97C13.6871 6.98559 13.414 6.89136 13.1824 6.7282C12.9508 6.56505 12.7702 6.33964 12.6614 6.07808C12.5525 5.81651 12.52 5.52948 12.5676 5.25021C12.6151 4.97093 12.7408 4.71083 12.93 4.5L13.66 3.77L12.245 2.345L11.5 3.07C11.2892 3.25923 11.0291 3.38489 10.7498 3.43243C10.4705 3.47997 10.1835 3.44746 9.92192 3.33865C9.66036 3.22984 9.43495 3.04918 9.2718 2.81759C9.10864 2.58599 9.01441 2.31293 9 2.03V1H7V2.03C6.98559 2.31293 6.89136 2.58599 6.7282 2.81759C6.56505 3.04918 6.33964 3.22984 6.07808 3.33865C5.81651 3.44746 5.52948 3.47997 5.25021 3.43243C4.97093 3.38489 4.71083 3.25923 4.5 3.07L3.755 2.345L2.345 3.755L3.07 4.5C3.25923 4.71083 3.38489 4.97093 3.43243 5.25021C3.47997 5.52948 3.44746 5.81651 3.33865 6.07808C3.22984 6.33964 3.04918 6.56505 2.81759 6.7282C2.58599 6.89136 2.31293 6.98559 2.03 7H1V9H2.03C2.31293 9.01441 2.58599 9.10864 2.81759 9.2718C3.04918 9.43495 3.22984 9.66036 3.33865 9.92192C3.44746 10.1835 3.47997 10.4705 3.43243 10.7498C3.38489 11.0291 3.25923 11.2892 3.07 11.5L2.345 12.245L3.76 13.66L4.5 12.93C4.71083 12.7408 4.97093 12.6151 5.25021 12.5676C5.52948 12.52 5.81651 12.5525 6.07808 12.6614C6.33964 12.7702 6.56505 12.9508 6.7282 13.1824C6.89136 13.414 6.98559 13.6871 7 13.97V15Z" fill="#305041"/>
</svg>
