<svg width="143" height="41" viewBox="0 0 143 41" fill="none" xmlns="http://www.w3.org/2000/svg">
<path d="M14.44 30L8.04 18.88H4.56V30H1.19209e-07V2.2H9.6C11.7333 2.2 13.5333 2.57333 15 3.32C16.4933 4.06666 17.6 5.06667 18.32 6.32C19.0667 7.57333 19.44 8.97333 19.44 10.52C19.44 12.3333 18.9067 13.9867 17.84 15.48C16.8 16.9467 15.1867 17.9467 13 18.48L19.88 30H14.44ZM4.56 15.24H9.6C11.3067 15.24 12.5867 14.8133 13.44 13.96C14.32 13.1067 14.76 11.96 14.76 10.52C14.76 9.08 14.3333 7.96 13.48 7.16C12.6267 6.33333 11.3333 5.92 9.6 5.92H4.56V15.24ZM45.4734 18.44C45.4734 19.2667 45.4201 20.0133 45.3134 20.68H28.4734C28.6068 22.44 29.2601 23.8533 30.4334 24.92C31.6068 25.9867 33.0468 26.52 34.7534 26.52C37.2068 26.52 38.9401 25.4933 39.9534 23.44H44.8734C44.2068 25.4667 42.9934 27.1333 41.2334 28.44C39.5001 29.72 37.3401 30.36 34.7534 30.36C32.6468 30.36 30.7534 29.8933 29.0734 28.96C27.4201 28 26.1134 26.6667 25.1534 24.96C24.2201 23.2267 23.7534 21.2267 23.7534 18.96C23.7534 16.6933 24.2068 14.7067 25.1134 13C26.0468 11.2667 27.3401 9.93333 28.9934 9C30.6734 8.06667 32.5934 7.6 34.7534 7.6C36.8334 7.6 38.6868 8.05333 40.3134 8.96C41.9401 9.86667 43.2068 11.1467 44.1134 12.8C45.0201 14.4267 45.4734 16.3067 45.4734 18.44ZM40.7134 17C40.6868 15.32 40.0868 13.9733 38.9134 12.96C37.7401 11.9467 36.2868 11.44 34.5534 11.44C32.9801 11.44 31.6334 11.9467 30.5134 12.96C29.3934 13.9467 28.7268 15.2933 28.5134 17H40.7134ZM54.5209 11.2C55.2943 10.1867 56.3476 9.33333 57.6809 8.64C59.0143 7.94667 60.5209 7.6 62.2009 7.6C64.1209 7.6 65.8676 8.08 67.4409 9.04C69.0409 9.97333 70.2943 11.2933 71.2009 13C72.1076 14.7067 72.5609 16.6667 72.5609 18.88C72.5609 21.0933 72.1076 23.08 71.2009 24.84C70.2943 26.5733 69.0409 27.9333 67.4409 28.92C65.8676 29.88 64.1209 30.36 62.2009 30.36C60.5209 30.36 59.0276 30.0267 57.7209 29.36C56.4143 28.6667 55.3476 27.8133 54.5209 26.8V40.48H49.9609V7.96H54.5209V11.2ZM67.9209 18.88C67.9209 17.36 67.6009 16.0533 66.9609 14.96C66.3476 13.84 65.5209 13 64.4809 12.44C63.4676 11.8533 62.3743 11.56 61.2009 11.56C60.0543 11.56 58.9609 11.8533 57.9209 12.44C56.9076 13.0267 56.0809 13.88 55.4409 15C54.8276 16.12 54.5209 17.44 54.5209 18.96C54.5209 20.48 54.8276 21.8133 55.4409 22.96C56.0809 24.08 56.9076 24.9333 57.9209 25.52C58.9609 26.1067 60.0543 26.4 61.2009 26.4C62.3743 26.4 63.4676 26.1067 64.4809 25.52C65.5209 24.9067 66.3476 24.0267 66.9609 22.88C67.6009 21.7333 67.9209 20.4 67.9209 18.88ZM81.6303 0.4V30H77.0703V0.4H81.6303ZM86.0972 18.88C86.0972 16.6667 86.5505 14.7067 87.4572 13C88.3905 11.2933 89.6439 9.97333 91.2172 9.04C92.8172 8.08 94.5772 7.6 96.4972 7.6C98.2305 7.6 99.7372 7.94667 101.017 8.64C102.324 9.30667 103.364 10.1467 104.137 11.16V7.96H108.737V30H104.137V26.72C103.364 27.76 102.311 28.6267 100.977 29.32C99.6439 30.0133 98.1239 30.36 96.4172 30.36C94.5239 30.36 92.7905 29.88 91.2172 28.92C89.6439 27.9333 88.3905 26.5733 87.4572 24.84C86.5505 23.08 86.0972 21.0933 86.0972 18.88ZM104.137 18.96C104.137 17.44 103.817 16.12 103.177 15C102.564 13.88 101.751 13.0267 100.737 12.44C99.7239 11.8533 98.6305 11.56 97.4572 11.56C96.2839 11.56 95.1905 11.8533 94.1772 12.44C93.1639 13 92.3372 13.84 91.6972 14.96C91.0839 16.0533 90.7772 17.36 90.7772 18.88C90.7772 20.4 91.0839 21.7333 91.6972 22.88C92.3372 24.0267 93.1639 24.9067 94.1772 25.52C95.2172 26.1067 96.3105 26.4 97.4572 26.4C98.6305 26.4 99.7239 26.1067 100.737 25.52C101.751 24.9333 102.564 24.08 103.177 22.96C103.817 21.8133 104.137 20.48 104.137 18.96ZM134.567 7.96L121.047 40.36H116.327L120.807 29.64L112.127 7.96H117.207L123.407 24.76L129.847 7.96H134.567ZM139.848 30.28C139.021 30.28 138.328 30 137.768 29.44C137.208 28.88 136.928 28.1867 136.928 27.36C136.928 26.5333 137.208 25.84 137.768 25.28C138.328 24.72 139.021 24.44 139.848 24.44C140.648 24.44 141.328 24.72 141.888 25.28C142.448 25.84 142.728 26.5333 142.728 27.36C142.728 28.1867 142.448 28.88 141.888 29.44C141.328 30 140.648 30.28 139.848 30.28Z" fill="black"/>
</svg>
