<svg width="91" height="79" viewBox="0 0 91 79" fill="none" xmlns="http://www.w3.org/2000/svg">
<path d="M32.8866 40.3852L30.553 38.0516L45.5403 23.1045L60.5277 38.0516L58.1739 40.3852L47.19 29.4012V78.0445H43.8706V29.4012L32.8866 40.3852Z" fill="#1E1E1E" fill-opacity="0.33"/>
<path d="M74.3279 24.9355C74.3279 24.6941 74.3682 24.4527 74.3682 24.2113C74.3682 11.276 63.7463 0.794922 50.8713 0.794922C41.5973 0.794922 33.6107 6.24668 29.8689 14.1326C28.2395 13.3078 26.4289 12.8451 24.4775 12.8451C18.5229 12.8451 13.5941 17.5928 12.6285 23.3061C5.54727 25.7402 0.4375 32.7008 0.4375 40.6672C0.4375 50.6654 8.50449 58.8129 18.4625 58.8129H36.8496V55.5941H18.6234C10.3955 55.5941 3.69648 48.8549 3.69648 40.5867C3.69648 34.1894 7.76016 28.275 13.7953 26.1828L15.4852 25.5994L15.7869 23.8291C16.5111 19.4838 20.2328 15.923 24.6184 15.923C26.0064 15.923 27.3744 16.2449 28.6217 16.8887L31.3375 18.2566L32.6451 15.5006C35.9846 8.47969 43.1262 3.95332 50.8311 3.95332C61.9559 3.95332 71.1293 12.6641 71.1293 23.8492C71.1293 26.5248 71.0891 27.933 71.0891 27.933L74.1469 27.9531C81.5098 28.0537 87.3438 34.6723 87.3438 42.0955C87.3438 49.4986 81.3488 55.5539 73.9658 55.5941H73.3221H53.748V58.8129H74.0664C83.1191 58.8129 90.5625 51.3092 90.5625 42.1559C90.5625 33.0025 83.4209 24.9557 74.3279 24.9355Z" fill="#1E1E1E" fill-opacity="0.33"/>
</svg>
